{
  "accessors": [
    {
      "bufferView": 2,
      "componentType": 5126,
      "count": 42533,
      "max": [
        1.4965428113937378,
        2.8502748012542725,
        3.909980297088623
      ],
      "min": [
        -1.4563002586364746,
        -0.030618607997894287,
        -3.8919243812561035
      ],
      "type": "VEC3"
    },
    {
      "bufferView": 2,
      "byteOffset": 510396,
      "componentType": 5126,
      "count": 42533,
      "max": [
        1.0,
        1.0,
        1.0
      ],
      "min": [
        -1.0,
        -1.0,
        -1.0
      ],
      "type": "VEC3"
    },
    {
      "bufferView": 1,
      "componentType": 5126,
      "count": 42533,
      "max": [
        0.9970241189002991,
        0.9967239499092102
      ],
      "min": [
        0.002975866198539734,
        0.002975866198539734
      ],
      "type": "VEC2"
    },
    {
      "bufferView": 0,
      "componentType": 5125,
      "count": 135489,
      "type": "SCALAR"
    },
    {
      "bufferView": 2,
      "byteOffset": 1020792,
      "componentType": 5126,
      "count": 53294,
      "max": [
        1.5045325756072998,
        2.8564224243164063,
        3.9157540798187256
      ],
      "min": [
        -1.4642844200134277,
        -0.038602251559495926,
        -3.899923801422119
      ],
      "type": "VEC3"
    },
    {
      "bufferView": 2,
      "byteOffset": 1660320,
      "componentType": 5126,
      "count": 53294,
      "max": [
        1.0,
        1.0,
        1.0
      ],
      "min": [
        -1.0,
        -1.0,
        -1.0
      ],
      "type": "VEC3"
    },
    {
      "bufferView": 1,
      "byteOffset": 340264,
      "componentType": 5126,
      "count": 53294,
      "max": [
        0.9970241189002991,
        0.9967239499092102
      ],
      "min": [
        0.002975866198539734,
        0.002975866198539734
      ],
      "type": "VEC2"
    },
    {
      "bufferView": 0,
      "byteOffset": 541956,
      "componentType": 5125,
      "count": 163020,
      "type": "SCALAR"
    },
    {
      "bufferView": 2,
      "byteOffset": 2299848,
      "componentType": 5126,
      "count": 17105,
      "max": [
        0.602333664894104,
        1.0434974431991577,
        0.7789905071258545
      ],
      "min": [
        -0.32955098152160645,
        -2.2611451148986816,
        -1.5569287538528442
      ],
      "type": "VEC3"
    },
    {
      "bufferView": 2,
      "byteOffset": 2505108,
      "componentType": 5126,
      "count": 17105,
      "max": [
        1.0,
        1.0,
        1.0
      ],
      "min": [
        -1.0,
        -1.0,
        -1.0
      ],
      "type": "VEC3"
    },
    {
      "bufferView": 1,
      "byteOffset": 766616,
      "componentType": 5126,
      "count": 17105,
      "max": [
        0.9957019686698914,
        0.9846034049987793
      ],
      "min": [
        0.004298025742173195,
        0.004298025742173195
      ],
      "type": "VEC2"
    },
    {
      "bufferView": 0,
      "byteOffset": 1194036,
      "componentType": 5125,
      "count": 87744,
      "type": "SCALAR"
    },
    {
      "bufferView": 2,
      "byteOffset": 2710368,
      "componentType": 5126,
      "count": 1032,
      "max": [
        0.19618944823741913,
        -0.933455765247345,
        -0.26796042919158936
      ],
      "min": [
        0.17000031471252441,
        -1.0530869960784912,
        -0.377771258354187
      ],
      "type": "VEC3"
    },
    {
      "bufferView": 2,
      "byteOffset": 2722752,
      "componentType": 5126,
      "count": 1032,
      "max": [
        0.9999663829803467,
        0.445383220911026,
        0.5877549648284912
      ],
      "min": [
        -0.9999662637710571,
        -0.4453733265399933,
        -0.587760865688324
      ],
      "type": "VEC3"
    },
    {
      "bufferView": 1,
      "byteOffset": 903456,
      "componentType": 5126,
      "count": 1032,
      "max": [
        0.6912021636962891,
        0.8106673955917358
      ],
      "min": [
        0.3957071900367737,
        0.6811507940292358
      ],
      "type": "VEC2"
    },
    {
      "bufferView": 0,
      "byteOffset": 1545012,
      "componentType": 5125,
      "count": 5376,
      "type": "SCALAR"
    },
    {
      "bufferView": 2,
      "byteOffset": 2735136,
      "componentType": 5126,
      "count": 94,
      "max": [
        0.20020724833011627,
        -0.9179023504257202,
        -0.26097607612609863
      ],
      "min": [
        0.16309772431850433,
        -1.0624560117721558,
        -0.39139699935913086
      ],
      "type": "VEC3"
    },
    {
      "bufferView": 2,
      "byteOffset": 2736264,
      "componentType": 5126,
      "count": 94,
      "max": [
        -0.8187940120697021,
        0.17233803868293762,
        0.553320586681366
      ],
      "min": [
        -0.9828324913978577,
        -0.39947670698165894,
        0.043797120451927185
      ],
      "type": "VEC3"
    },
    {
      "bufferView": 1,
      "byteOffset": 911712,
      "componentType": 5126,
      "count": 94,
      "max": [
        0.9986035823822021,
        0.9817189574241638
      ],
      "min": [
        0.001396313775330782,
        0.001396313775330782
      ],
      "type": "VEC2"
    },
    {
      "bufferView": 0,
      "byteOffset": 1566516,
      "componentType": 5125,
      "count": 360,
      "type": "SCALAR"
    },
    {
      "bufferView": 2,
      "byteOffset": 2737392,
      "componentType": 5126,
      "count": 16338,
      "max": [
        0.6039016842842102,
        1.0454972982406616,
        0.7809875011444092
      ],
      "min": [
        -0.040141236037015915,
        -2.2631337642669678,
        -0.5171552300453186
      ],
      "type": "VEC3"
    },
    {
      "bufferView": 2,
      "byteOffset": 2933448,
      "componentType": 5126,
      "count": 16338,
      "max": [
        1.0,
        1.0,
        1.0
      ],
      "min": [
        -1.0,
        -1.0,
        -1.0
      ],
      "type": "VEC3"
    },
    {
      "bufferView": 1,
      "byteOffset": 912464,
      "componentType": 5126,
      "count": 16338,
      "max": [
        0.9986035823822021,
        0.9846034049987793
      ],
      "min": [
        0.001396313775330782,
        0.001396313775330782
      ],
      "type": "VEC2"
    },
    {
      "bufferView": 0,
      "byteOffset": 1567956,
      "componentType": 5125,
      "count": 84504,
      "type": "SCALAR"
    },
    {
      "bufferView": 2,
      "byteOffset": 3129504,
      "componentType": 5126,
      "count": 64,
      "max": [
        0.9935950636863708,
        0.0,
        0.9935950636863708
      ],
      "min": [
        -0.9935950636863708,
        0.0,
        -0.9935950636863708
      ],
      "type": "VEC3"
    },
    {
      "bufferView": 2,
      "byteOffset": 3130272,
      "componentType": 5126,
      "count": 64,
      "max": [
        0.0,
        1.0,
        -0.0
      ],
      "min": [
        0.0,
        1.0,
        -0.0
      ],
      "type": "VEC3"
    },
    {
      "bufferView": 1,
      "byteOffset": 1043168,
      "componentType": 5126,
      "count": 64,
      "max": [
        0.9980078935623169,
        0.9980078339576721
      ],
      "min": [
        0.0019920316990464926,
        0.0019920316990464926
      ],
      "type": "VEC2"
    },
    {
      "bufferView": 0,
      "byteOffset": 1905972,
      "componentType": 5125,
      "count": 186,
      "type": "SCALAR"
    }
  ],
  "asset": {
    "extras": {
      "author": "NickNech (https://sketchfab.com/nicknech)",
      "license": "CC-BY-4.0 (http://creativecommons.org/licenses/by/4.0/)",
      "source": "https://sketchfab.com/3d-models/ukrainian-protester-on-top-of-russian-btr-14c5fbbc7ac1456cac7455d4a5257d21",
      "title": "Ukrainian protester on top of Russian BTR"
    },
    "generator": "Sketchfab-12.78.0",
    "version": "2.0"
  },
  "bufferViews": [
    {
      "buffer": 0,
      "byteLength": 1906716,
      "name": "floatBufferViews",
      "target": 34963
    },
    {
      "buffer": 0,
      "byteLength": 1043680,
      "byteOffset": 1906716,
      "byteStride": 8,
      "name": "floatBufferViews",
      "target": 34962
    },
    {
      "buffer": 0,
      "byteLength": 3131040,
      "byteOffset": 2950396,
      "byteStride": 12,
      "name": "floatBufferViews",
      "target": 34962
    }
  ],
  "buffers": [
    {
      "byteLength": 6081436,
      "uri": "scene.bin"
    }
  ],
  "extensionsUsed": [
    "KHR_materials_unlit"
  ],
  "images": [
    {
      "uri": "textures/material_baseColor.png"
    },
    {
      "uri": "textures/Dude_baseColor.png"
    },
    {
      "uri": "textures/Eyes_Shadow_baseColor.png"
    },
    {
      "uri": "textures/Floor_baseColor.png"
    }
  ],
  "materials": [
    {
      "doubleSided": true,
      "extensions": {
        "KHR_materials_unlit": {}
      },
      "name": "material",
      "pbrMetallicRoughness": {
        "baseColorTexture": {
          "index": 0
        },
        "metallicFactor": 0.0
      }
    },
    {
      "extensions": {
        "KHR_materials_unlit": {}
      },
      "name": "Outline",
      "pbrMetallicRoughness": {
        "baseColorFactor": [
          0.0,
          0.0,
          0.0,
          1.0
        ],
        "metallicFactor": 0.0
      }
    },
    {
      "doubleSided": true,
      "extensions": {
        "KHR_materials_unlit": {}
      },
      "name": "Dude",
      "pbrMetallicRoughness": {
        "baseColorTexture": {
          "index": 1
        },
        "metallicFactor": 0.0
      }
    },
    {
      "extensions": {
        "KHR_materials_unlit": {}
      },
      "name": "DudeBC",
      "pbrMetallicRoughness": {
        "baseColorTexture": {
          "index": 1
        },
        "metallicFactor": 0.0
      }
    },
    {
      "alphaMode": "BLEND",
      "doubleSided": true,
      "extensions": {
        "KHR_materials_unlit": {}
      },
      "name": "Eyes_Shadow",
      "pbrMetallicRoughness": {
        "baseColorFactor": [
          0.0,
          0.0,
          0.0,
          1.0
        ],
        "baseColorTexture": {
          "index": 2
        },
        "metallicFactor": 0.0
      }
    },
    {
      "alphaMode": "BLEND",
      "doubleSided": true,
      "extensions": {
        "KHR_materials_unlit": {}
      },
      "name": "Floor",
      "pbrMetallicRoughness": {
        "baseColorTexture": {
          "index": 3
        },
        "metallicFactor": 0.0
      }
    }
  ],
  "meshes": [
    {
      "name": "Object_0",
      "primitives": [
        {
          "attributes": {
            "NORMAL": 1,
            "POSITION": 0,
            "TEXCOORD_0": 2
          },
          "indices": 3,
          "material": 0,
          "mode": 4
        }
      ]
    },
    {
      "name": "Object_1",
      "primitives": [
        {
          "attributes": {
            "NORMAL": 5,
            "POSITION": 4,
            "TEXCOORD_0": 6
          },
          "indices": 7,
          "material": 1,
          "mode": 4
        }
      ]
    },
    {
      "name": "Object_2",
      "primitives": [
        {
          "attributes": {
            "NORMAL": 9,
            "POSITION": 8,
            "TEXCOORD_0": 10
          },
          "indices": 11,
          "material": 2,
          "mode": 4
        }
      ]
    },
    {
      "name": "Object_3",
      "primitives": [
        {
          "attributes": {
            "NORMAL": 13,
            "POSITION": 12,
            "TEXCOORD_0": 14
          },
          "indices": 15,
          "material": 3,
          "mode": 4
        }
      ]
    },
    {
      "name": "Object_4",
      "primitives": [
        {
          "attributes": {
            "NORMAL": 17,
            "POSITION": 16,
            "TEXCOORD_0": 18
          },
          "indices": 19,
          "material": 4,
          "mode": 4
        }
      ]
    },
    {
      "name": "Object_5",
      "primitives": [
        {
          "attributes": {
            "NORMAL": 21,
            "POSITION": 20,
            "TEXCOORD_0": 22
          },
          "indices": 23,
          "material": 1,
          "mode": 4
        }
      ]
    },
    {
      "name": "Object_6",
      "primitives": [
        {
          "attributes": {
            "NORMAL": 25,
            "POSITION": 24,
            "TEXCOORD_0": 26
          },
          "indices": 27,
          "material": 5,
          "mode": 4
        }
      ]
    }
  ],
  "nodes": [
    {
      "children": [
        1
      ],
      "matrix": [
        1.0,
        0.0,
        0.0,
        0.0,
        0.0,
        2.220446049250313e-16,
        -1.0,
        0.0,
        0.0,
        1.0,
        2.220446049250313e-16,
        0.0,
        0.0,
        0.0,
        0.0,
        1.0
      ],
      "name": "Sketchfab_model"
    },
    {
      "children": [
        2
      ],
      "name": "root"
    },
    {
      "children": [
        3,
        6,
        11
      ],
      "matrix": [
        1.0,
        0.0,
        0.0,
        0.0,
        0.0,
        2.220446049250313e-16,
        1.0,
        0.0,
        0.0,
        -1.0,
        2.220446049250313e-16,
        0.0,
        0.0,
        0.0,
        0.0,
        1.0
      ],
      "name": "GLTF_SceneRootNode"
    },
    {
      "children": [
        4,
        5
      ],
      "name": "BTR_0"
    },
    {
      "mesh": 0,
      "name": "Object_4"
    },
    {
      "mesh": 1,
      "name": "Object_5"
    },
    {
      "children": [
        7,
        8,
        9,
        10
      ],
      "matrix": [
        0.36594439377791055,
        -0.0603719952477097,
        -0.9286764360380466,
        0.0,
        0.6687520836362839,
        0.7110217167480454,
        0.21729880106616115,
        0.0,
        0.6471903516699289,
        -0.7005735796491849,
        0.3005683087134784,
        0.0,
        0.2886098325252533,
        4.0954670906066895,
        -0.03761960566043854,
        1.0
      ],
      "name": "Dude_1"
    },
    {
      "mesh": 2,
      "name": "Object_7"
    },
    {
      "mesh": 3,
      "name": "Object_8"
    },
    {
      "mesh": 4,
      "name": "Object_9"
    },
    {
      "mesh": 5,
      "name": "Object_10"
    },
    {
      "children": [
        12
      ],
      "matrix": [
        11.10801887512207,
        0.0,
        0.0,
        0.0,
        0.0,
        11.10801887512207,
        0.0,
        0.0,
        0.0,
        0.0,
        11.10801887512207,
        0.0,
        0.0,
        0.0,
        0.0,
        1.0
      ],
      "name": "Floor_2"
    },
    {
      "mesh": 6,
      "name": "Object_12"
    }
  ],
  "samplers": [
    {
      "magFilter": 9729,
      "minFilter": 9987,
      "wrapS": 10497,
      "wrapT": 10497
    }
  ],
  "scene": 0,
  "scenes": [
    {
      "name": "Sketchfab_Scene",
      "nodes": [
        0
      ]
    }
  ],
  "textures": [
    {
      "sampler": 0,
      "source": 0
    },
    {
      "sampler": 0,
      "source": 1
    },
    {
      "sampler": 0,
      "source": 2
    },
    {
      "sampler": 0,
      "source": 3
    }
  ]
}
